<?xml version="1.0" encoding="utf-8"?>
<!-- Generator: Adobe Illustrator 26.0.3, SVG Export Plug-In . SVG Version: 6.00 Build 0)  -->
<svg version="1.1" id="Layer_1" xmlns="http://www.w3.org/2000/svg" xmlns:xlink="http://www.w3.org/1999/xlink" x="0px" y="0px"
	 viewBox="0 0 421 107.6" style="enable-background:new 0 0 421 107.6;" xml:space="preserve">
<style type="text/css">
	.st0{fill:#FFFFFF;}
	.st1{fill:url(#SVGID_1_);}
	.st2{fill:url(#SVGID_00000103254655259607132790000017559828766206989458_);}
	.st3{fill:url(#SVGID_00000054972050134214128760000011108766563161581483_);}
	.st4{fill:url(#SVGID_00000052785926516525353020000015839495569173663392_);}
</style>
<g>
	<polygon class="st0" points="392.7,55.7 407.5,29.2 400.5,16.6 364.5,16.6 355.9,31.7 374.1,31.7 359.3,58.3 359.3,58.3 
		359.2,58.3 366.3,70.8 366.4,70.8 402.2,70.8 411,55.7 	"/>
	<g>
		<path class="st0" d="M46.6,69.7L27.2,48h-7.9v21.6h-8.7V15.4h25.5c11.2,0,18.6,6.6,18.6,16.4c0,9.3-6.8,15.6-17.1,16.2l19.6,21.7
			H46.6z M36.2,40.2c6,0,10-3.4,10-8.4c0-5.1-4-8.5-10-8.5H19.4v16.9H36.2z"/>
		<path class="st0" d="M101.3,51.6H68.7C69.5,59,75,63.5,80.9,63.5c4.5,0,9-1.3,11.8-7l7.5,1.6c-3.3,8.4-10.5,12.6-19.4,12.6
			c-10.9,0-20.5-8.4-20.5-21.1c0-12.8,9.5-21.3,20.8-21.3c10.8,0,19.7,8.3,20.1,20.3V51.6z M69,45.6h23.7c-1.3-6.6-5.9-9.8-11.4-9.8
			C75.9,35.8,70.3,39.1,69,45.6z"/>
		<path class="st0" d="M110.6,69.7V11.3h8.4v58.3H110.6z"/>
		<path class="st0" d="M169.3,51.6h-32.6c0.8,7.5,6.2,11.9,12.2,11.9c4.5,0,9-1.3,11.8-7l7.5,1.6c-3.3,8.4-10.5,12.6-19.4,12.6
			c-10.9,0-20.5-8.4-20.5-21.1c0-12.8,9.5-21.3,20.8-21.3c10.8,0,19.7,8.3,20.1,20.3V51.6z M137,45.6h23.7
			c-1.3-6.6-5.9-9.8-11.4-9.8C143.9,35.8,138.3,39.1,137,45.6z"/>
		<path class="st0" d="M198.4,69.7h-9l-17.3-40.3h9.2l12.6,30.2l12.6-30.2h9.2L198.4,69.7z"/>
		<path class="st0" d="M261.3,69.7h-8.4V65c-3.5,3.6-8.5,5.8-14.6,5.8c-10.5,0-19.9-8.5-19.9-21.2c0-12.6,9.4-21.2,19.9-21.2
			c6.1,0,11.1,2.1,14.6,5.8v-4.6h8.4V69.7z M252.8,49.6c0-8.4-6.6-13.8-13.2-13.8c-7.4,0-13.1,5.3-13.1,13.8
			c0,8.5,5.8,13.8,13.1,13.8C246.3,63.3,252.8,58.1,252.8,49.6z"/>
		<path class="st0" d="M312.5,45.3v24.3H304V47c0-6.6-3.8-10.9-9.6-10.9c-7.2,0-12,4.9-12,15v18.6h-8.4V29.5h8.4v4.9
			c3.2-3.9,7.9-6.1,13.9-6.1C306.1,28.3,312.5,35.3,312.5,45.3z"/>
		<path class="st0" d="M351,67.7c-3.8,2.3-6.6,3.1-10,3.1c-8.7,0-14.5-4.9-14.5-14.8V36.4h-8.7v-7h8.7V17h8.4v12.5h13.8v7H335v19
			c0,5,2.7,7.5,6.6,7.5c2.1,0,4.7-0.8,6.8-2.2L351,67.7z"/>
	</g>
	<g>
		<path class="st0" d="M215.7,95.8h-6.2v-8.6h6.2v1.2h-4.9v2.4h4.5v1.2h-4.5v2.4h4.9V95.8z"/>
		<path class="st0" d="M226.1,92v3.8h-1.3v-3.6c0-1-0.6-1.7-1.5-1.7c-1.1,0-1.9,0.8-1.9,2.4v2.9h-1.3v-6.4h1.3v0.8
			c0.5-0.6,1.2-1,2.2-1C225.1,89.3,226.1,90.4,226.1,92z"/>
		<path class="st0" d="M236.6,95.2c0,1.9-1.3,3-3.2,3c-1.5,0-2.5-0.6-3-1.5l1.1-0.8c0.5,0.7,1,1.1,2,1.1c1.2,0,2-0.8,2-2v-0.4
			c-0.5,0.5-1.2,0.8-2.1,0.8c-1.6,0-3-1.3-3-3.1c0-1.8,1.5-3.1,3-3.1c1,0,1.7,0.3,2.1,0.8v-0.6h1.3V95.2z M235.4,92.3
			c0-1.2-0.9-1.9-1.9-1.9c-1.1,0-2,0.8-2,1.9c0,1.2,0.9,1.9,2,1.9C234.4,94.3,235.4,93.5,235.4,92.3z"/>
		<path class="st0" d="M242.9,87.5c0,0.5-0.4,0.8-0.8,0.8c-0.5,0-0.8-0.3-0.8-0.8c0-0.4,0.4-0.8,0.8-0.8
			C242.6,86.7,242.9,87.1,242.9,87.5z M241.4,95.8v-6.4h1.3v6.4H241.4z"/>
		<path class="st0" d="M253.5,92v3.8h-1.3v-3.6c0-1-0.6-1.7-1.5-1.7c-1.1,0-1.9,0.8-1.9,2.4v2.9h-1.3v-6.4h1.3v0.8
			c0.5-0.6,1.2-1,2.2-1C252.5,89.3,253.5,90.4,253.5,92z"/>
		<path class="st0" d="M263.9,93h-5c0.1,1.2,1,1.9,1.9,1.9c0.7,0,1.4-0.2,1.8-1.1l1.2,0.3c-0.5,1.3-1.6,2-3,2
			c-1.7,0-3.2-1.3-3.2-3.3c0-2,1.5-3.4,3.2-3.4c1.7,0,3,1.3,3.1,3.2V93z M258.9,92h3.7c-0.2-1-0.9-1.6-1.8-1.6
			C259.9,90.5,259.1,91,258.9,92z"/>
		<path class="st0" d="M273.8,93h-5c0.1,1.2,1,1.9,1.9,1.9c0.7,0,1.4-0.2,1.8-1.1l1.2,0.3c-0.5,1.3-1.6,2-3,2
			c-1.7,0-3.2-1.3-3.2-3.3c0-2,1.5-3.4,3.2-3.4c1.7,0,3,1.3,3.1,3.2V93z M268.8,92h3.7c-0.2-1-0.9-1.6-1.8-1.6
			C269.9,90.5,269,91,268.8,92z"/>
		<path class="st0" d="M282.1,89.4l-0.1,1.3c-0.1,0-0.3,0-0.4,0c-1.6,0-2.4,1.1-2.4,2.9v2.2H278v-6.4h1.3v1.4
			c0.5-0.8,1.3-1.4,2.4-1.4C281.8,89.4,282,89.4,282.1,89.4z"/>
		<path class="st0" d="M287.6,87.5c0,0.5-0.4,0.8-0.8,0.8c-0.5,0-0.8-0.3-0.8-0.8c0-0.4,0.4-0.8,0.8-0.8
			C287.3,86.7,287.6,87.1,287.6,87.5z M286.1,95.8v-6.4h1.3v6.4H286.1z"/>
		<path class="st0" d="M298.2,92v3.8h-1.3v-3.6c0-1-0.6-1.7-1.5-1.7c-1.1,0-1.9,0.8-1.9,2.4v2.9h-1.3v-6.4h1.3v0.8
			c0.5-0.6,1.2-1,2.2-1C297.2,89.3,298.2,90.4,298.2,92z"/>
		<path class="st0" d="M308.7,95.2c0,1.9-1.3,3-3.2,3c-1.5,0-2.5-0.6-3-1.5l1.1-0.8c0.5,0.7,1,1.1,2,1.1c1.2,0,2-0.8,2-2v-0.4
			c-0.5,0.5-1.2,0.8-2.1,0.8c-1.6,0-3-1.3-3-3.1c0-1.8,1.5-3.1,3-3.1c1,0,1.7,0.3,2.1,0.8v-0.6h1.3V95.2z M307.4,92.3
			c0-1.2-0.9-1.9-1.9-1.9c-1.1,0-2,0.8-2,1.9c0,1.2,0.9,1.9,2,1.9C306.5,94.3,307.4,93.5,307.4,92.3z"/>
		<path class="st0" d="M314.6,95c0,0.5-0.3,0.8-0.8,0.8c-0.5,0-0.8-0.4-0.8-0.8c0-0.4,0.4-0.8,0.8-0.8
			C314.3,94.2,314.6,94.6,314.6,95z"/>
		<path class="st0" d="M331,95.8l-0.8-2h-4.1l-0.8,2h-1.5l3.7-8.6h1.3l3.7,8.6H331z M328.1,88.9l-1.5,3.7h3L328.1,88.9z"/>
		<path class="st0" d="M342.2,92v3.8h-1.3v-3.6c0-1-0.6-1.7-1.5-1.7c-1.1,0-1.9,0.8-1.9,2.4v2.9h-1.3v-6.4h1.3v0.8
			c0.5-0.6,1.2-1,2.2-1C341.2,89.3,342.2,90.4,342.2,92z"/>
		<path class="st0" d="M352.9,95.8h-1.3v-0.7c-0.6,0.6-1.3,0.9-2.3,0.9c-1.6,0-3.1-1.3-3.1-3.4c0-2,1.5-3.4,3.1-3.4
			c0.9,0,1.7,0.3,2.3,0.9v-3.6h1.3V95.8z M351.6,92.6c0-1.3-1-2.2-2-2.2c-1.1,0-2,0.8-2,2.2c0,1.3,0.9,2.2,2,2.2
			C350.6,94.8,351.6,94,351.6,92.6z"/>
		<path class="st0" d="M367,88.5v7.3h-1.4v-7.3h-2.9v-1.2h7.2v1.2H367z"/>
		<path class="st0" d="M377.6,89.4l-0.1,1.3c-0.1,0-0.2,0-0.4,0c-1.6,0-2.4,1.1-2.4,2.9v2.2h-1.3v-6.4h1.3v1.4
			c0.5-0.8,1.3-1.4,2.4-1.4C377.3,89.4,377.4,89.4,377.6,89.4z"/>
		<path class="st0" d="M387.3,95.8H386V95c-0.5,0.6-1.2,1-2.1,1c-1.5,0-2.5-1.1-2.5-2.7v-3.8h1.3V93c0,1,0.6,1.7,1.5,1.7
			c1.1,0,1.8-0.8,1.8-2.4v-2.9h1.3V95.8z"/>
		<path class="st0" d="M392.7,93.8c0.1,0.8,0.7,1.1,1.6,1.1c0.8,0,1.2-0.3,1.2-0.8c0-0.4-0.3-0.6-0.8-0.8l-1.4-0.3
			c-1.1-0.2-1.7-0.8-1.7-1.7c0-1.2,1-2,2.5-2c1.4,0,2.4,0.8,2.6,1.8l-1.2,0.3c-0.1-0.6-0.6-1-1.4-1c-0.8,0-1.1,0.4-1.1,0.8
			c0,0.4,0.2,0.6,0.8,0.7l1.5,0.3c1,0.2,1.6,0.8,1.6,1.7c0,1.3-1.1,2.1-2.6,2.1c-1.4,0-2.6-0.6-2.7-1.9L392.7,93.8z"/>
		<path class="st0" d="M405.1,95.5c-0.6,0.4-1,0.5-1.5,0.5c-1.3,0-2.2-0.8-2.2-2.3v-3.1H400v-1.1h1.3v-2h1.3v2h2.1v1.1h-2.1v3
			c0,0.8,0.4,1.2,1,1.2c0.3,0,0.7-0.1,1.1-0.3L405.1,95.5z"/>
		<path class="st0" d="M410.1,95c0,0.5-0.3,0.8-0.8,0.8c-0.5,0-0.8-0.4-0.8-0.8c0-0.4,0.4-0.8,0.8-0.8
			C409.8,94.2,410.1,94.6,410.1,95z"/>
	</g>
	<g>
		<linearGradient id="SVGID_1_" gradientUnits="userSpaceOnUse" x1="397.383" y1="63.2717" x2="375.2234" y2="63.2717">
			<stop  offset="0" style="stop-color:#99247E"/>
			<stop  offset="1" style="stop-color:#E01B51"/>
		</linearGradient>
		<polygon class="st1" points="373.6,58.3 367.8,68.3 385.3,68.3 400.8,68.3 406.6,58.3 		"/>
		
			<linearGradient id="SVGID_00000111910510392195240560000015787532782575050425_" gradientUnits="userSpaceOnUse" x1="362.4609" y1="64.9826" x2="379.8177" y2="38.7774">
			<stop  offset="0" style="stop-color:#99247E"/>
			<stop  offset="1" style="stop-color:#E01B51"/>
		</linearGradient>
		<polygon style="fill:url(#SVGID_00000111910510392195240560000015787532782575050425_);" points="388.8,31.7 377,31.7 370.3,43.7 
			362.1,58.3 367.8,68.3 		"/>
	</g>
	<g>
		
			<linearGradient id="SVGID_00000099650893489064927030000017294576704500202172_" gradientUnits="userSpaceOnUse" x1="363.2006" y1="24.1749" x2="390.3707" y2="24.1749">
			<stop  offset="0" style="stop-color:#99247E"/>
			<stop  offset="1" style="stop-color:#E01B51"/>
		</linearGradient>
		<polygon style="fill:url(#SVGID_00000099650893489064927030000017294576704500202172_);" points="366,19.2 360.2,29.2 375.9,29.2 
			393.2,29.2 399,19.2 381.6,19.2 		"/>
		
			<linearGradient id="SVGID_00000163045195232225093470000011552599271948437656_" gradientUnits="userSpaceOnUse" x1="400.343" y1="28.975" x2="385.3626" y2="50.3107">
			<stop  offset="0" style="stop-color:#99247E"/>
			<stop  offset="1" style="stop-color:#E01B51"/>
		</linearGradient>
		<polygon style="fill:url(#SVGID_00000163045195232225093470000011552599271948437656_);" points="404.7,29.2 399,19.2 390.7,33.5 
			377.9,55.7 389.8,55.7 396.5,43.7 		"/>
	</g>
</g>
</svg>
